<svg width="92" height="37" viewBox="0 0 92 37" fill="none" xmlns="http://www.w3.org/2000/svg">
<g id="Group 2">
<ellipse id="Oval 3" cx="73.7605" cy="18.4326" rx="18.2395" ry="18.4326" fill="#0C2F75"/>
<ellipse id="Oval 3 Copy" cx="49.8619" cy="24.7882" rx="1.88685" ry="1.90682" fill="#0C2F75"/>
<path id="KUN" fill-rule="evenodd" clip-rule="evenodd" d="M45.7775 10.5826H41.4652V19.9L34.9496 10.4771H30.961V26.6956H35.2838L35.2316 17.9162L41.7993 26.8222H45.7775V10.5826ZM8.32191 18.4753L14.5764 26.6953H9.14679L4.48986 20.132H4.3228V26.6953H0V10.5824H4.3228V17.2935H4.43765L8.83354 10.5824H13.8246L8.32191 18.4753ZM22.0112 27.0963C17.8554 27.0963 14.9945 24.3422 14.9945 20.3641V10.5824H19.3173V20.3747C19.3173 22.0102 20.4345 23.1393 22.0112 23.1393C23.5983 23.1393 24.7155 22.0102 24.7155 20.3852V10.5824H29.0383V20.3641C29.0383 24.3422 26.1774 27.0963 22.0112 27.0963Z" fill="#0C2F75"/>
<path id="UZ" fill-rule="evenodd" clip-rule="evenodd" d="M60.2119 20.3643C60.2119 24.3424 63.0729 27.0965 67.2286 27.0965C71.3948 27.0965 74.2558 24.3424 74.2558 20.3643V10.5825H69.933V20.3854C69.933 22.0104 68.8157 23.1395 67.2286 23.1395C65.652 23.1395 64.5347 22.0104 64.5347 20.3748V10.5825H60.2119V20.3643ZM81.8684 14.4657L75.2171 26.6955H88.4883V22.8018H82.3383L88.9582 10.5825H76.4701V14.4657H81.8684Z" fill="white"/>
</g>
</svg>
